<svg width="1280" height="640" viewBox="0 0 1280 640" fill="none" xmlns="http://www.w3.org/2000/svg">
    <defs>
        <filter id="blurLg" x="-20%" y="-20%" width="140%" height="140%">
            <feGaussianBlur stdDeviation="100" result="blur" />
        </filter>
        <linearGradient id="textGrad" x1="0%" y1="0%" x2="100%" y2="100%">
            <stop offset="0%" stop-color="#60A5FA" />
            <stop offset="100%" stop-color="#34D399" />
        </linearGradient>
    </defs>

    <rect width="1280" height="640" fill="#0B0E14"/>

    <circle cx="300" cy="150" r="250" fill="#2563EB" opacity="0.3" filter="url(#blurLg)"/>
    <circle cx="980" cy="490" r="250" fill="#10B981" opacity="0.25" filter="url(#blurLg)"/>

    <rect x="240" y="160" width="800" height="320" rx="40" fill="#1E293B" fill-opacity="0.6" stroke="#FFFFFF" stroke-opacity="0.1" stroke-width="2"/>

    <path d="M640 240 C580 240, 530 265, 490 295" stroke="#60A5FA" stroke-width="12" stroke-linecap="round" fill="none" opacity="0.4"/>
    <path d="M640 275 C600 275, 565 290, 535 315" stroke="#60A5FA" stroke-width="12" stroke-linecap="round" fill="none" opacity="0.7"/>
    <circle cx="640" cy="350" r="16" fill="#34D399"/>

    <text x="640" y="385" font-family="system-ui, -apple-system, sans-serif" font-size="72" font-weight="800" fill="url(#textGrad)" text-anchor="middle" letter-spacing="-1">
        SyncDrop
    </text>

    <text x="640" y="435" font-family="system-ui, -apple-system, sans-serif" font-size="24" font-weight="500" fill="#94A3B8" text-anchor="middle" letter-spacing="2">
        LOCAL WI-FI FILE TRANSFER
    </text>
    
    <rect x="490" y="520" width="90" height="36" rx="18" fill="#1E293B" stroke="#334155"/>
    <text x="535" y="544" font-family="monospace" font-size="14" fill="#60A5FA" text-anchor="middle">React</text>

    <rect x="600" y="520" width="80" height="36" rx="18" fill="#1E293B" stroke="#334155"/>
    <text x="640" y="544" font-family="monospace" font-size="14" fill="#34D399" text-anchor="middle">Flask</text>

    <rect x="700" y="520" width="100" height="36" rx="18" fill="#1E293B" stroke="#334155"/>
    <text x="750" y="544" font-family="monospace" font-size="14" fill="#A78BFA" text-anchor="middle">Tailwind</text>
</svg>
